# xmcd
#
# Track frame offsets:
#	150
#	12261
#	23437
#	36976
#	52050
#	65245
#	81923
#	98557
#	110653
#	123781
#
# Disc length: 1839 seconds
#
# Revision: 0
# Processed by: cddbd v1.5.2PL0 Copyright (c) Steve Scherf et al.
# Submitted via: audiograbber 1.82.02
#
DISCID=7e072d0a
DTITLE=Dale Hawkins - LA, Memphis and Tyler, Texas
DYEAR=1900
DGENRE=
TTITLE0=LA-Memphis-Tyler
TTITLE1=Heavy on my mind
TTITLE2=Joe
TTITLE3=Hound dog
TTITLE4=Back street
TTITLE5=La-La  La-La
TTITLE6=Candy man
TTITLE7=Ruby, don't take your love to town
TTITLE8=Baby what you want me to do
TTITLE9=Little rain cloud
EXTD=
EXTT0=
EXTT1=
EXTT2=
EXTT3=
EXTT4=
EXTT5=
EXTT6=
EXTT7=
EXTT8=
EXTT9=
PLAYORDER=
